<?xml version="1.0" encoding="UTF-8" standalone="no"?>
<!DOCTYPE svg PUBLIC "-//W3C//DTD SVG 1.1//EN" "http://www.w3.org/Graphics/SVG/1.1/DTD/svg11.dtd">
<svg width="100%" height="100%" viewBox="0 0 38 38" version="1.1" xmlns="http://www.w3.org/2000/svg" xmlns:xlink="http://www.w3.org/1999/xlink" xml:space="preserve" xmlns:serif="http://www.serif.com/" style="fill-rule:evenodd;clip-rule:evenodd;stroke-linejoin:round;stroke-miterlimit:2;">
    <g id="Layer_1-2">
        <path d="M1,0C0.451,0 0,0.451 0,1L0,37C0,37.549 0.451,38 1,38L37,38C37.549,38 38,37.549 38,37L38,1C38,0.451 37.549,0 37,0L1,0Z" style="fill:white;"/>
    </g>
    <g transform="matrix(0.0175781,0,0,0.0175781,10,10)">
        <path d="M1024,512C1024,229.23 794.77,0 512,0C229.23,0 0,229.23 0,512C0,767.554 187.231,979.37 432,1017.78L432,660L302,660L302,512L432,512L432,399.2C432,270.88 508.438,200 625.39,200C681.407,200 740,210 740,210L740,336L675.438,336C611.835,336 592,375.467 592,415.957L592,512L734,512L711.3,660L592,660L592,1017.78C836.769,979.37 1024,767.554 1024,512Z" style="fill:rgb(24,119,242);fill-rule:nonzero;"/>
    </g>
</svg>
